# xmcd
#
# Track frame offsets: 
#        182
#        15420
#        30475
#
# Disc length: 673 seconds
#
# Revision: 5
# Processed by: cddbd v1.5.2PL0 Copyright (c) Steve Scherf et al.
# Submitted via: ExactAudioCopyFreeDBPlugin 1.0
#
DISCID=13029f03
DTITLE=Robson and Jerome - Unchained Melody - White Cliffs Of Dover
DYEAR=1995
DGENRE=Pop
TTITLE0=Unchained Melody
TTITLE1=(There'll Be Bluebirds Over) The White Cliffs Of Dover
TTITLE2=(There'll Be Bluebirds Over) The White Cliffs Of Dover (Extend
TTITLE2=ed Version)
EXTD=YEAR: 1995 ID3G:   0
EXTT0=
EXTT1=
EXTT2=
PLAYORDER=
